<?xml version="1.0" encoding="UTF-8"?>
<svg id="ARTWORK" xmlns="http://www.w3.org/2000/svg" version="1.1" viewBox="0 0 6173.8 1025.8">
  <defs>
    <style>
      .cls-1 {
        fill: #fff;
        stroke-width: 0px;
      }
    </style>
  </defs>
  <path class="cls-1" d="M4595.1,271.3c-38.9-5.2-75.7,12.9-95.4,47.7-16.6,29-20.7,69.5-3.1,99,12.4,24.8,38.4,42,65.8,44.6,35.8,3.1,67.4-14.5,86.1-44.6,19.2-28,20.3-73.7,4.6-103.7-10.4-22.8-34.7-38.9-58-43Z"/>
  <path class="cls-1" d="M3520.2,0l-457.4,362.5,457.4,363.1h2653.6V0h-2653.6ZM4263.6,604.8h-168.7l9.3-211.2-91.8,211.2h-112.5l-32.1-214.3-54.4,213.9h-173.2l141.6-483.5h183.5l28.5,196.6,81.9-196.6h187.9v484h0ZM4842.9,371.4c-1.5,92.7-62.2,179.3-146.7,218.1-103.2,48.8-241.1,26-321.9-53.9-71.5-67.9-86.1-182.5-48.7-270.6,43.5-98,146.2-159.2,251.9-154.5,45.6,1,89.7,8.8,128.6,28l18.2,14,107.3,137.9c12,23.3,12.5,52.9,11.4,80.9ZM5208.4,274.3l-75.7-3.1-38.8,333.2h-183.6l41.8-332.5-69.7,2.4-117.1-153.6h459.2l-16,153.6ZM5607.1,573.6c-60.7,44-141.6,50.7-219.9,39.9-62.2-11.4-133.2-51.9-153.5-115.2-8.8-22.8-7.2-50.2-7.2-75.1l36.3-302.5h179.9l-34.2,300.5c-1.1,18.1,7.2,36.3,23.3,44,16.6,6.2,37.3,3.7,50.3-8.8,11.4-9.9,15.6-23.3,18.7-37.3l40.9-298.4h175.3l-37.8,331c-8.3,47.2-30.1,91.8-72.1,121.9ZM6009.4,604.4h-307l63.8-483.7h182.4l-40.9,330.8h144.1l-42.5,152.9Z"/>
  <polygon class="cls-1" points="17.4 824.7 17.4 1023.1 44.6 1023.1 44.6 943.7 121.2 943.7 121.2 919.2 44.6 919.2 44.6 849.2 141.2 849.2 148.6 841.8 148.6 824.7 17.4 824.7"/>
  <rect class="cls-1" x="213.5" y="824.7" width="27.2" height="198.3"/>
  <polygon class="cls-1" points="508.1 824.7 478.3 824.7 422.3 959.3 366.4 824.7 336.6 824.7 311.5 1011.1 311.5 1023.1 338.4 1023.1 356.7 870 409.8 997 434.8 997 488 870 506.3 1023.1 533.1 1023.1 533.1 1011.5 508.1 824.7"/>
  <path class="cls-1" d="M829.1,930.3c-7-7.9-15.8-13-26.2-15.1l-50.7-11c-6.2-1.3-11.1-3.8-14.4-7.4-3.2-3.5-4.8-8.6-4.8-15.4v-8.2c0-3.3.6-6.5,1.9-9.3,1.3-2.9,3-5.5,5.2-7.6,2.2-2.2,4.7-3.9,7.6-5.2,2.8-1.3,6-1.9,9.3-1.9h71.2l7.4-7.4v-17h-78.6c-7.5,0-14.5,1.2-20.8,3.6-6.3,2.4-11.8,5.8-16.3,10.1-4.5,4.3-8,9.5-10.5,15.4-2.4,5.9-3.7,12.4-3.7,19.4v8.2c0,13.2,3.6,23.9,10.7,31.9,7,7.9,15.8,13,26.2,15.1l50.7,11c6.2,1.3,11.1,3.8,14.4,7.4,3.2,3.5,4.8,8.6,4.8,15.4v12.3c0,3.3-.6,6.5-1.9,9.3-1.3,2.9-3,5.5-5.2,7.6s-4.7,3.9-7.6,5.2c-2.8,1.3-6,1.9-9.3,1.9h-85.5v24.5h85.5c7.5,0,14.5-1.2,20.8-3.6,6.3-2.4,11.8-5.8,16.3-10.1,4.5-4.3,8-9.5,10.5-15.4,2.4-5.9,3.7-12.4,3.7-19.4v-12.3c0-13.2-3.6-23.9-10.7-31.9Z"/>
  <path class="cls-1" d="M1025.4,824.7v152.6c0,3.3-.6,6.5-1.9,9.3-1.3,2.9-3,5.5-5.2,7.6s-4.7,3.9-7.6,5.2c-2.8,1.3-6,1.9-9.3,1.9h-41.1c-3.3,0-6.5-.6-9.3-1.9-2.9-1.3-5.5-3-7.6-5.2s-3.9-4.7-5.2-7.6c-1.3-2.8-1.9-6-1.9-9.3v-152.6h-27.2v152.6c0,7,1.2,13.5,3.7,19.4,2.5,5.9,6,11.1,10.5,15.4,4.5,4.3,10,7.7,16.3,10.1,6.3,2.4,13.3,3.6,20.8,3.6h41.1c7.5,0,14.5-1.2,20.8-3.6,6.3-2.4,11.8-5.8,16.3-10.1,4.5-4.3,8-9.5,10.5-15.4,2.4-5.9,3.7-12.4,3.7-19.4v-152.6h-27.2Z"/>
  <path class="cls-1" d="M1265.4,853.9c-2.5-5.9-6-11.1-10.5-15.4-4.5-4.3-10-7.7-16.3-10.1-6.3-2.4-13.3-3.6-20.8-3.6h-88.2v198.3h27.2v-64.3h61c7.5,0,14.5-1.2,20.8-3.6,6.3-2.4,11.8-5.8,16.3-10.1,4.5-4.3,8-9.5,10.5-15.4,2.4-5.9,3.7-12.4,3.7-19.4v-37c0-7-1.2-13.5-3.7-19.4ZM1217.8,934.2h-61v-85h61c3.3,0,6.5.6,9.3,1.9,2.9,1.3,5.5,3,7.6,5.2s3.9,4.7,5.2,7.6c1.3,2.8,1.9,6,1.9,9.3v37c0,3.3-.6,6.5-1.9,9.3-1.3,2.9-3,5.5-5.2,7.6-2.2,2.2-4.7,3.9-7.6,5.2-2.8,1.3-6,1.9-9.3,1.9Z"/>
  <polygon class="cls-1" points="1462.9 849.2 1470.3 841.8 1470.3 824.7 1339.1 824.7 1339.1 1023.1 1470.3 1023.1 1470.3 998.6 1366.3 998.6 1366.3 934.1 1444.3 934.1 1444.3 909.6 1366.3 909.6 1366.3 849.2 1462.9 849.2"/>
  <path class="cls-1" d="M1642.1,945.2c5.5-1.6,10.6-4,15.2-7,4.9-3.2,9.5-7.9,13.6-14,4.2-6.3,6.3-14.7,6.3-25v-26c0-7-1.2-13.5-3.7-19.4-2.5-5.9-6-11.1-10.5-15.4-4.5-4.3-10-7.7-16.3-10.1-6.3-2.4-13.3-3.6-20.8-3.6h-88.2v198.3h27.2v-75.3h49.5l42.4,75.3h25.8v-12.5l-40.5-65.4ZM1564.9,849.2h61c3.3,0,6.5.6,9.3,1.9,2.9,1.3,5.5,3,7.6,5.2s3.9,4.7,5.2,7.6c1.3,2.8,1.9,6,1.9,9.3v26c0,3.3-.6,6.5-1.9,9.3-1.3,2.9-3,5.5-5.2,7.6-2.2,2.2-4.7,3.9-7.6,5.2-2.8,1.3-6,1.9-9.3,1.9h-61v-74.1Z"/>
  <path class="cls-1" d="M1890.7,935.2c-3.5-5.3-7.7-9.5-12.4-12.7-3.1-2.1-6.5-3.9-10.2-5.2,2-1.1,3.9-2.4,5.7-3.9,3.2-2.6,6.2-6.3,8.7-10.8,2.6-4.7,4-10.9,4-18.3v-11c0-7-1.2-13.5-3.7-19.4-2.5-5.9-6-11.1-10.5-15.4-4.5-4.3-10-7.7-16.3-10.1-6.3-2.4-13.3-3.6-20.8-3.6h-82.7v198.3h92.3c7.5,0,14.5-1.2,20.8-3.6,6.3-2.4,11.8-5.8,16.3-10.1,4.5-4.3,8-9.5,10.5-15.4,2.4-5.9,3.7-12.4,3.7-19.4v-17.8c0-8.8-1.8-16.1-5.5-21.6ZM1845,998.6h-65.1v-65.9h65.1c3.3,0,6.5.6,9.3,1.9,2.9,1.3,5.5,3,7.6,5.2s3.9,4.7,5.2,7.6c1.3,2.8,1.9,6,1.9,9.3v17.8c0,3.3-.6,6.5-1.9,9.3-1.3,2.9-3,5.5-5.2,7.6s-4.7,3.9-7.6,5.2c-2.8,1.3-6,1.9-9.3,1.9ZM1859.4,884.2c0,3.3-.6,6.5-1.9,9.3-1.3,2.9-3,5.5-5.2,7.6s-4.7,3.9-7.6,5.2c-2.8,1.3-6,1.9-9.3,1.9h-55.5v-59h55.5c3.3,0,6.5.6,9.3,1.9,2.9,1.3,5.5,3,7.6,5.2s3.9,4.7,5.2,7.6c1.3,2.8,1.9,6,1.9,9.3v11Z"/>
  <rect class="cls-1" x="1966.2" y="824.7" width="27.2" height="198.3"/>
  <polygon class="cls-1" points="2159.4 921.2 2209.6 837.2 2209.6 824.7 2183.7 824.7 2137.2 909.6 2097.3 909.6 2097.3 824.7 2070.1 824.7 2070.1 1023.1 2097.3 1023.1 2097.3 934.1 2137.2 934.1 2186.5 1023.1 2212.3 1023.1 2212.3 1010.6 2159.4 921.2"/>
  <polygon class="cls-1" points="2403.6 849.2 2411.1 841.8 2411.1 824.7 2279.8 824.7 2279.8 1023.1 2411.1 1023.1 2411.1 998.6 2307 998.6 2307 934.1 2385.1 934.1 2385.1 909.6 2307 909.6 2307 849.2 2403.6 849.2"/>
  <polygon class="cls-1" points="2783 824.7 2742.2 979.9 2703.1 854.8 2672.2 854.8 2633.1 979.9 2592.4 824.7 2565.9 824.7 2565.9 836.7 2616 1023.1 2647 1023.1 2687.7 894.5 2728.4 1023.1 2759.4 1023.1 2809.3 837.1 2809.4 836.7 2809.4 824.7 2783 824.7"/>
  <path class="cls-1" d="M3017,851.1c-2.5-5.9-6-11.1-10.5-15.4-4.5-4.3-10-7.7-16.3-10.1-6.3-2.4-13.3-3.6-20.8-3.6h-47.9c-7.5,0-14.5,1.2-20.8,3.6-6.3,2.4-11.8,5.8-16.3,10.1-4.5,4.3-8,9.5-10.5,15.4-2.4,5.9-3.7,12.4-3.7,19.4v106.8c0,7,1.2,13.5,3.7,19.4,2.5,5.9,6,11,10.5,15.4,4.5,4.3,10,7.7,16.3,10.1,6.3,2.4,13.3,3.6,20.8,3.6h47.9c7.5,0,14.5-1.2,20.8-3.6,6.3-2.4,11.8-5.8,16.3-10.1,4.5-4.3,8-9.5,10.5-15.4,2.4-5.9,3.7-12.4,3.7-19.4v-106.8c0-7-1.2-13.5-3.7-19.4ZM2969.4,1001.3h-47.9c-3.3,0-6.5-.6-9.3-1.9-2.9-1.3-5.5-3-7.6-5.2s-3.9-4.7-5.2-7.6c-1.3-2.8-1.9-6-1.9-9.3v-106.8c0-3.3.6-6.5,1.9-9.3,1.3-2.9,3-5.5,5.2-7.6s4.7-3.9,7.6-5.2c2.8-1.3,6-1.9,9.3-1.9h47.9c3.3,0,6.5.6,9.3,1.9,2.9,1.3,5.5,3,7.6,5.2s3.9,4.7,5.2,7.6c1.3,2.8,1.9,6,1.9,9.3v106.8c0,3.3-.6,6.5-1.9,9.3-1.3,2.9-3,5.5-5.2,7.6s-4.7,3.9-7.6,5.2c-2.8,1.3-6,1.9-9.3,1.9Z"/>
  <path class="cls-1" d="M3199.4,945.2c5.5-1.6,10.6-4,15.2-7,4.9-3.2,9.5-7.9,13.6-14,4.2-6.3,6.3-14.7,6.3-25v-26c0-7-1.2-13.5-3.7-19.4-2.5-5.9-6-11.1-10.5-15.4-4.5-4.3-10-7.7-16.3-10.1-6.3-2.4-13.3-3.6-20.8-3.6h-88.2v198.3h27.2v-75.3h49.5l42.4,75.3h25.8v-12.5l-40.5-65.4ZM3122.2,849.2h61c3.3,0,6.5.6,9.3,1.9,2.9,1.3,5.5,3,7.6,5.2s3.9,4.7,5.2,7.6c1.3,2.8,1.9,6,1.9,9.3v26c0,3.3-.6,6.5-1.9,9.3-1.3,2.9-3,5.5-5.2,7.6-2.2,2.2-4.7,3.9-7.6,5.2-2.8,1.3-6,1.9-9.3,1.9h-61v-74.1Z"/>
  <polygon class="cls-1" points="3337.1 998.6 3337.1 824.7 3309.9 824.7 3309.9 1023.1 3439.8 1023.1 3439.8 998.6 3337.1 998.6"/>
  <path class="cls-1" d="M3643.3,853.9c-2.5-5.9-6-11-10.5-15.4-4.5-4.3-10-7.7-16.3-10.1-6.3-2.4-13.3-3.6-20.8-3.6h-90.9v198.3h91c7.5,0,14.5-1.2,20.8-3.6,6.3-2.4,11.8-5.8,16.3-10.1,4.5-4.3,8-9.5,10.5-15.4,2.4-5.9,3.7-12.4,3.7-19.4v-101.3c0-7-1.2-13.5-3.7-19.4ZM3595.7,998.6h-63.7v-149.4h63.7c3.3,0,6.5.6,9.3,1.9,2.9,1.3,5.5,3,7.6,5.2,2.2,2.2,3.9,4.7,5.2,7.6,1.3,2.8,1.9,6,1.9,9.3v101.3c0,3.3-.6,6.5-1.9,9.3-1.3,2.9-3,5.5-5.2,7.6-2.2,2.2-4.7,3.9-7.6,5.2-2.8,1.3-6,1.9-9.3,1.9Z"/>
  <path class="cls-1" d="M3861,863.9c1.3-2.9,3-5.5,5.2-7.6,2.2-2.2,4.7-3.9,7.6-5.2,2.8-1.3,6-1.9,9.3-1.9h75.3l7.4-7.4v-17h-82.7c-7.5,0-14.5,1.2-20.8,3.6-6.3,2.4-11.8,5.8-16.3,10.1-4.5,4.3-8,9.5-10.5,15.4-2.4,5.9-3.7,12.4-3.7,19.4v101.3c0,7,1.2,13.5,3.7,19.4,2.5,5.9,6,11.1,10.5,15.4,4.5,4.3,10,7.7,16.3,10.1,6.3,2.4,13.3,3.6,20.8,3.6h82.7v-24.5h-82.7c-3.3,0-6.5-.6-9.3-1.9-2.9-1.3-5.5-3-7.6-5.2-2.2-2.2-3.9-4.7-5.2-7.6-1.3-2.8-1.9-6-1.9-9.3v-101.3c0-3.3.6-6.5,1.9-9.3Z"/>
  <polygon class="cls-1" points="4148.9 824.7 4148.9 909.6 4061.1 909.6 4061.1 824.7 4033.9 824.7 4033.9 1023.1 4061.1 1023.1 4061.1 934.1 4148.9 934.1 4148.9 1023.1 4176.1 1023.1 4176.1 824.7 4148.9 824.7"/>
  <path class="cls-1" d="M4338.6,826.9l-.8-2.2h-27.9l-67.9,185.6-.2.6v12.1h26.3l16.4-49.3h78.7l16.4,49.3h26.3v-12.1l-67.3-184ZM4354.1,949.3h-60.5l30.2-88.3,30.2,88.3Z"/>
  <polygon class="cls-1" points="4663.2 824.7 4633.4 824.7 4577.5 959.3 4521.5 824.7 4491.7 824.7 4466.7 1011.1 4466.7 1023.1 4493.5 1023.1 4511.8 870 4565 997 4590 997 4643.1 870 4661.4 1023.1 4688.3 1023.1 4688.3 1011.5 4663.2 824.7"/>
  <path class="cls-1" d="M4895.5,853.9c-2.5-5.9-6-11-10.5-15.4-4.5-4.3-10-7.7-16.3-10.1-6.3-2.4-13.3-3.6-20.8-3.6h-88.2v198.3h27.2v-64.3h61c7.5,0,14.5-1.2,20.8-3.6,6.3-2.4,11.8-5.8,16.3-10.1,4.5-4.3,8-9.5,10.5-15.4,2.4-5.9,3.7-12.4,3.7-19.4v-37c0-7-1.2-13.5-3.7-19.4ZM4847.9,934.2h-61v-85h61c3.3,0,6.5.6,9.3,1.9,2.9,1.3,5.5,3,7.6,5.2,2.2,2.2,3.9,4.7,5.2,7.6,1.3,2.8,1.9,6,1.9,9.3v37c0,3.3-.6,6.5-1.9,9.3-1.3,2.9-3,5.5-5.2,7.6-2.2,2.2-4.7,3.9-7.6,5.2-2.8,1.3-6,1.9-9.3,1.9Z"/>
  <rect class="cls-1" x="4969.1" y="824.7" width="27.2" height="198.3"/>
  <path class="cls-1" d="M5217,851.1c-2.5-5.9-6-11.1-10.5-15.4-4.5-4.3-10-7.7-16.3-10.1-6.3-2.4-13.3-3.6-20.8-3.6h-47.9c-7.5,0-14.5,1.2-20.8,3.6-6.3,2.4-11.8,5.8-16.3,10.1-4.5,4.3-8,9.5-10.5,15.4-2.4,5.9-3.7,12.4-3.7,19.4v106.8c0,7,1.2,13.5,3.7,19.4,2.5,5.9,6,11,10.5,15.4,4.5,4.3,10,7.7,16.3,10.1,6.3,2.4,13.3,3.6,20.8,3.6h47.9c7.5,0,14.5-1.2,20.8-3.6,6.3-2.4,11.8-5.8,16.3-10.1,4.5-4.3,8-9.5,10.5-15.4,2.4-5.9,3.7-12.4,3.7-19.4v-106.8c0-7-1.2-13.5-3.7-19.4ZM5169.4,1001.3h-47.9c-3.3,0-6.5-.6-9.3-1.9-2.9-1.3-5.5-3-7.6-5.2-2.2-2.2-3.9-4.7-5.2-7.6-1.3-2.8-1.9-6-1.9-9.3v-106.8c0-3.3.6-6.5,1.9-9.3,1.3-2.9,3-5.5,5.2-7.6s4.7-3.9,7.6-5.2c2.8-1.3,6-1.9,9.3-1.9h47.9c3.3,0,6.5.6,9.3,1.9,2.9,1.3,5.5,3,7.6,5.2,2.2,2.2,3.9,4.7,5.2,7.6,1.3,2.8,1.9,6,1.9,9.3v106.8c0,3.3-.6,6.5-1.9,9.3-1.3,2.9-3,5.5-5.2,7.6s-4.7,3.9-7.6,5.2c-2.8,1.3-6,1.9-9.3,1.9Z"/>
  <polygon class="cls-1" points="5408.6 824.7 5408.6 949.9 5410.4 974.1 5322.1 824.7 5295 824.7 5295 1023.1 5322.2 1023.1 5322.2 897.9 5320.3 873.7 5408.6 1023.1 5435.8 1023.1 5435.8 824.7 5408.6 824.7"/>
  <path class="cls-1" d="M5631.2,930.3c-7-7.9-15.8-13-26.2-15.1l-50.7-11c-6.2-1.3-11.1-3.8-14.4-7.4-3.2-3.5-4.8-8.6-4.8-15.4v-8.2c0-3.3.6-6.5,1.9-9.3,1.3-2.9,3-5.5,5.2-7.6,2.2-2.2,4.7-3.9,7.6-5.2,2.8-1.3,6-1.9,9.3-1.9h71.2l7.4-7.4v-17h-78.6c-7.5,0-14.5,1.2-20.8,3.6-6.3,2.4-11.8,5.8-16.3,10.1-4.5,4.3-8,9.5-10.5,15.4-2.4,5.9-3.7,12.4-3.7,19.4v8.2c0,13.2,3.6,23.9,10.7,31.9,7,7.9,15.8,13,26.2,15.1l50.7,11c6.2,1.3,11.1,3.8,14.4,7.4,3.2,3.5,4.8,8.6,4.8,15.4v12.3c0,3.3-.6,6.5-1.9,9.3-1.3,2.9-3,5.5-5.2,7.6-2.2,2.2-4.7,3.9-7.6,5.2-2.8,1.3-6,1.9-9.3,1.9h-85.5v24.5h85.5c7.5,0,14.5-1.2,20.8-3.6,6.3-2.4,11.8-5.8,16.3-10.1,4.5-4.3,8-9.5,10.5-15.4,2.4-5.9,3.7-12.4,3.7-19.4v-12.3c0-13.2-3.6-23.9-10.7-31.9Z"/>
  <polygon class="cls-1" points="5826.1 824.7 5826.1 909.6 5738.4 909.6 5738.4 824.7 5711.1 824.7 5711.1 1023.1 5738.4 1023.1 5738.4 934.1 5826.1 934.1 5826.1 1023.1 5853.4 1023.1 5853.4 824.7 5826.1 824.7"/>
  <rect class="cls-1" x="5930.5" y="824.7" width="27.2" height="198.3"/>
  <path class="cls-1" d="M6170.1,853.9c-2.5-5.9-6-11-10.5-15.4-4.5-4.3-10-7.7-16.3-10.1-6.3-2.4-13.3-3.6-20.8-3.6h-88.2v198.3h27.2v-64.3h61c7.5,0,14.5-1.2,20.8-3.6,6.3-2.4,11.8-5.8,16.3-10.1,4.5-4.3,8-9.5,10.5-15.4,2.4-5.9,3.7-12.4,3.7-19.4v-37c0-7-1.2-13.5-3.7-19.4ZM6122.5,934.2h-61v-85h61c3.3,0,6.5.6,9.3,1.9,2.9,1.3,5.5,3,7.6,5.2,2.2,2.2,3.9,4.7,5.2,7.6,1.3,2.8,1.9,6,1.9,9.3v37c0,3.3-.6,6.5-1.9,9.3-1.3,2.9-3,5.5-5.2,7.6-2.2,2.2-4.7,3.9-7.6,5.2-2.8,1.3-6,1.9-9.3,1.9Z"/>
  <polygon class="cls-1" points="2250.5 0 2250.5 725.5 2395.5 725.5 2691.5 490.3 2585.3 405.8 2395.5 556.7 2395.5 0 2250.5 0"/>
  <polygon class="cls-1" points="3308.3 725.5 3095.8 725.5 2639.4 362.8 3096.4 0 3308.3 0 2851.9 362.8 3308.3 725.5"/>
  <path class="cls-1" d="M839.9,290.2H217.7c-40.1,0-72.6-29.8-72.6-72.6s32.5-72.6,72.6-72.6h640.4L1040.2,0H217.7C97.5,0,0,97.5,0,217.7s97.4,217.7,217.7,217.7h622.3c40.1,0,72.6,29.8,72.6,72.6s-32.5,72.6-72.6,72.6H199.5L17.4,725.6h822.6c120.2,0,217.7-97.4,217.7-217.7s-97.5-217.7-217.7-217.7Z"/>
  <path class="cls-1" d="M2182.8,217.7c0-128.2-97.4-217.7-217.7-217.7h-839.9v725.5h839.9c120.2,0,217.7-97.4,217.7-217.7s-20.4-109.1-54-146.7c33.6-38.3,54-88.5,54-143.5ZM1965.1,580.4h-694.9v-145.1h694.9c40,0,72.5,29.8,72.5,72.6s-32.5,72.6-72.6,72.6ZM1965.2,290.2h-694.9v-145.1h694.9c40.1,0,72.6,29.8,72.6,72.6,0,40.1-32.5,72.5-72.5,72.6Z"/>
  <path class="cls-1" d="M3361.7,36.3h-6.7V5.7h-10.4V0h27.5v3.9l-1.8,1.8h-8.5v30.6Z"/>
  <path class="cls-1" d="M3397.7,31.4l-8-21h-.5l-2.6,25.9h-7v-2.8L3383.9,0h8l8.5,22.3h.5L3409.6,0h8l4.4,33.4v2.8h-7l-2.6-25.9h-.5l-8,21h-6.2Z"/>
</svg>